<?xml version="1.0" encoding="UTF-8" standalone="no"?>
<svg
   xmlns:dc="http://purl.org/dc/elements/1.1/"
   xmlns:cc="http://creativecommons.org/ns#"
   xmlns:rdf="http://www.w3.org/1999/02/22-rdf-syntax-ns#"
   xmlns:svg="http://www.w3.org/2000/svg"
   xmlns="http://www.w3.org/2000/svg"
   xmlns:sodipodi="http://sodipodi.sourceforge.net/DTD/sodipodi-0.dtd"
   xmlns:inkscape="http://www.inkscape.org/namespaces/inkscape"
   width="304"
   height="62.99999999999999"
   viewBox="0 0 304 62.99999999999999"
   class="css-1j8o68f"
   version="1.1"
   id="svg28"
   sodipodi:docname="logo2.svg">
  <metadata
     id="metadata32">
    <rdf:RDF>
      <cc:Work
         rdf:about="">
        <dc:format>image/svg+xml</dc:format>
        <dc:type
           rdf:resource="http://purl.org/dc/dcmitype/StillImage" />
      </cc:Work>
    </rdf:RDF>
  </metadata>
  <sodipodi:namedview
     pagecolor="#ffffff"
     bordercolor="#666666"
     borderopacity="1"
     objecttolerance="10"
     gridtolerance="10"
     guidetolerance="10"
     inkscape:pageopacity="0"
     inkscape:pageshadow="2"
     inkscape:window-width="640"
     inkscape:window-height="480"
     id="namedview30" />
  <defs
     id="SvgjsDefs7548" />
  <g
     id="SvgjsG7549"
     featurekey="5TMTKC-0"
     transform="matrix(0.12304687499999999,0,0,0.12304687499999999,0,0)"
     fill="#ef4444">
    <defs
       id="defs3" />
    <title
       id="title5">p6</title>
    <path
       d="M74.48,141h-42a10,10,0,0,0,0,20h42A10,10,0,1,0,74.48,141Z"
       style="fill: none;"
       id="path7" />
    <path
       d="M75.19,105H31.78a10,10,0,0,0,0,20h43.4A10,10,0,0,0,75.19,105Z"
       style="fill: none;"
       id="path9" />
    <path
       d="M265,207.47a5,5,0,0,0-5-5,73.08,73.08,0,0,0-73,73,5,5,0,0,0,10,0,63.07,63.07,0,0,1,63-63A5,5,0,0,0,265,207.47Z"
       style="fill: none;"
       id="path11" />
    <path
       d="M256,138.24c-76.49,0-138.73,62.23-138.73,138.73S179.51,415.69,256,415.69,394.73,353.46,394.73,277,332.49,138.24,256,138.24ZM256,382A105,105,0,1,1,361,277,105.12,105.12,0,0,1,256,382Z"
       style="fill: none;"
       id="path13" />
    <path
       d="M256,251.47A25.5,25.5,0,1,0,281.5,277,25.58,25.58,0,0,0,256,251.47Z"
       style="fill: none;"
       id="path15" />
    <path
       d="M470.5,42H438V36A36.08,36.08,0,0,0,402,0H258.09A36.19,36.19,0,0,0,222,36v6H185.58A34.73,34.73,0,0,0,154,22H110.16A34.73,34.73,0,0,0,78.61,42H41.5A41.56,41.56,0,0,0,0,83.43V470.5A41.62,41.62,0,0,0,41.5,512h429A41.62,41.62,0,0,0,512,470.5V83.43A41.56,41.56,0,0,0,470.5,42Zm-396,119h-42a10,10,0,0,1,0-20h42A10,10,0,1,1,74.48,161Zm0.7-36H31.78a10,10,0,0,1,0-20h43.4A10,10,0,0,1,75.19,125ZM256,415.69c-76.49,0-138.73-62.23-138.73-138.73S179.51,138.24,256,138.24,394.73,200.47,394.73,277,332.49,415.69,256,415.69Z"
       id="path17" />
    <path
       d="M256,172A105,105,0,1,0,361,277,105.12,105.12,0,0,0,256,172Zm-59,103.5a5,5,0,0,1-10,0,73.08,73.08,0,0,1,73-73,5,5,0,0,1,0,10A63.07,63.07,0,0,0,197,275.47Zm59,27A25.5,25.5,0,1,1,281.5,277,25.58,25.58,0,0,1,256,302.47Z"
       id="path19" />
  </g>
  <g
     id="SvgjsG7550"
     featurekey="nameLeftFeature-0"
     transform="matrix(2.4861879239010025,0,0,2.4861879239010025,78.027624152198,0.9226509512374701)"
     fill="#111111">
    <path
       d="M4.5 15.4 c0 1.04 0.74 1.86 1.76 1.86 c0.98 0 1.74 -0.82 1.74 -1.86 l0 -0.24 c0 -1.12 -0.76 -1.9 -1.74 -1.9 c-2.32 0 -4.02 -1.7 -4.02 -3.9 l0 -0.26 c0 -2.2 1.7 -3.84 4.02 -3.84 c2.28 0 3.98 1.64 3.98 3.84 l-0.98 0 c0 -1.6 -1.32 -2.86 -3 -2.86 c-1.72 0 -3 1.26 -3 2.86 l0 0.26 c0 1.64 1.28 2.88 3 2.88 c1.54 0 2.74 1.26 2.74 2.92 l0 0.24 c0 1.6 -1.2 2.84 -2.74 2.84 c-1.56 0 -2.76 -1.24 -2.76 -2.84 l1 0 z M6.26 7.74 c-0.36 0 -0.72 0.12 -0.9 0.26 l-0.76 -0.7 c0.4 -0.3 1.1 -0.54 1.66 -0.54 c1.38 0 2.48 0.98 2.48 2.34 l-0.98 0 c0 -0.76 -0.66 -1.36 -1.5 -1.36 z M4.76 9.36 c0 0.78 0.64 1.38 1.5 1.38 c2.4 0 4.24 1.92 4.24 4.42 l0 0.24 c0 1.16 -0.5 2.2 -1.16 3 l-0.74 -0.7 c0.5 -0.66 0.9 -1.64 0.9 -2.3 l0 -0.24 c0 -1.96 -1.4 -3.4 -3.24 -3.4 c-1.42 0 -2.52 -1.06 -2.52 -2.4 l0 -0.26 c0 -0.46 0.2 -1.1 0.5 -1.44 l0.76 0.74 c-0.16 0.24 -0.24 0.54 -0.24 0.7 l0 0.26 z M3 15.4 c0 1.9 1.4 3.36 3.26 3.36 c0.68 0 1.54 -0.3 1.98 -0.7 l0.76 0.74 c-0.64 0.56 -1.8 0.94 -2.74 0.94 c-2.4 0 -4.26 -1.84 -4.26 -4.34 l1 0 z M16 19.5 l-1 0 l0 -14 l1 0 l0 8 l4.64 0 l1 1 l-5.64 0 l0 5 z M16.5 5.5 l1 0 l0 7.5 l-1 0 l0 -7.5 z M23.5 19.5 l-1 0 l0 -3.5 l-4.6 0 l-1.06 -1 l5.66 0 l0 -9.5 l1 0 l0 14 z M22 5.5 l0 8.6 l-1 -0.96 l0 -7.64 l1 0 z M16.5 19.5 l0 -4.14 l1 1 l0 3.14 l-1 0 z M22 19.5 l-1 0 l0 -3 l1 0 l0 3 z M26.94 19.5 l4.66 -14 l1.04 0 l-3.04 9.26 l3.44 0 l0.36 1 l-4.14 0 l-1.26 3.74 l-1.06 0 z M36.76 19.5 l-3.6 -10.8 l-1.86 5.56 l-1.06 0 l2.96 -8.76 l4.6 14 l-1.04 0 z M35.14 19.5 l-0.74 -2.24 l-3.76 0 l-0.7 -1 l4.16 0 l-1.46 -4.46 l0.52 -1.54 l3.08 9.24 l-1.1 0 z M29.56 19.5 l-1.06 0 l1.06 -3 l0.64 1 z M42.24 19.5 l-1 0 l0 -14 l4.5 0 c2.7 0 4.5 1.8 4.5 4.5 c0 1.2 -0.36 2.24 -1 3.06 l-0.76 -0.76 c0.46 -0.6 0.76 -1.4 0.76 -2.3 c0 -2.1 -1.4 -3.5 -3.5 -3.5 l-3.5 0 l0 5.5 l3.5 0 c1.2 0 2 -0.8 2 -2 s-0.8 -2 -2 -2 l-1.64 0 l-1.06 -1 l2.7 0 c1.8 0 3 1.2 3 3 c0 1.6 -0.96 2.76 -2.46 2.96 l2.2 6.54 l-1.08 0 l-2.16 -6.5 l-3 0 l0 6.5 z M42.74 7.4 l1 1 l0 3.1 l-1 0 l0 -4.1 z M46.94 13.36 c0.46 -0.16 0.84 -0.36 1.2 -0.66 l0.7 0.7 c-0.2 0.2 -0.4 0.34 -0.66 0.5 l1.86 5.6 l-1.06 0 z M44.14 14.5 l-1.06 -1 l1.8 0 l0.36 1 l-1.1 0 z M42.74 19.5 l0 -5.64 l1 1 l0 4.64 l-1 0 z M60.74 11.5 l0 1 l-5.5 0 l0 4.5 l6.5 0 l0 1 l-7.5 0 l0 -12.5 l7.5 0 l0 1 l-6.5 0 l0 5 l5.5 0 z M61.74 8 l-4.6 0 l-1.06 -1 l5.66 0 l0 1 z M55.74 7.359999999999999 l1 0.98 l0 2.66 l-1 0 l0 -3.64 z M60.74 14 l-3.6 0 l-1.06 -1 l4.66 0 l0 1 z M55.74 13.36 l1 0.98 l0 2.16 l-1 0 l0 -3.14 z M61.74 19.5 l-7.5 0 l0 -1 l7.5 0 l0 1 z"
       id="path22" />
  </g>
  <g
     id="SvgjsG7551"
     featurekey="nameRightFeature-0"
     transform="matrix(2.4,0,0,2.4,239.19999885559082,2.0000011444091808)"
     fill="#111111">
    <path
       d="M9.1 17.16 l-1.7 0 l-1.9 -3.36 l0 6.2 l-3.5 0 l0 -15 l2.5 0 l3.74 6.64 l3.76 -6.64 l2.5 0 l0 15 l-3.5 0 l0 -6.2 z M3.5 9.24 l4.14 7.42 l1.16 0 l-6.3 -11.16 l0 14 l1 0 l0 -10.26 z M9.1 16.14 l3.9 -6.9 l0 10.26 l1 0 l0 -14 l-4.9 8.66 l-4.86 -8.66 l-1.14 0 z M8.54 12.16 l0.56 0.94 l4.3 -7.6 l-1.14 0 z M5 12.9 l-1 -1.74 l0 8.34 l1 0 l0 -6.6 z M12.5 19.5 l0 -8.34 l-1 1.74 l0 6.6 l1 0 z M22 14.5 l0 2 l5 0 l0 3.5 l-8.5 0 l0 -15 l8.5 0 l0 3.5 l-5 0 l0 2.5 l4 0 l0 3.5 l-4 0 z M19 5.5 l0 12.5 l7.5 0 l0 -1 l-6.5 0 l0 -4.5 l5.5 0 l0 -1 l-5.5 0 l0 -5 l6.5 0 l0 -1 l-7.5 0 z M26.5 7 l-5.66 0 l1.06 1 l4.6 0 l0 -1 z M20.5 11 l1 0 l0 -2.66 l-1 -0.98 l0 3.64 z M25.5 13 l-4.66 0 l1.06 1 l3.6 0 l0 -1 z M20.5 16.5 l1 0 l0 -2.16 l-1 -0.98 l0 3.14 z M26.5 18.5 l-7.5 0 l0 1 l7.5 0 l0 -1 z"
       id="path25" />
  </g>
</svg>
